<svg xmlns="http://www.w3.org/2000/svg" viewBox="0 0 512 512" width="512" height="512">
  <defs>
    <linearGradient id="bgGrad512" x1="0%" y1="0%" x2="100%" y2="100%">
      <stop offset="0%" stop-color="#cce4ff" />
      <stop offset="50%" stop-color="#e2ecff" />
      <stop offset="100%" stop-color="#d6d8fb" />
    </linearGradient>
    <linearGradient id="blueGrad512" x1="15%" y1="70%" x2="85%" y2="20%">
      <stop offset="0%" stop-color="#0072ff" />
      <stop offset="50%" stop-color="#0084ff" />
      <stop offset="100%" stop-color="#0057d9" />
    </linearGradient>
    <linearGradient id="arrowGrad512" x1="20%" y1="80%" x2="90%" y2="15%">
      <stop offset="0%" stop-color="#0088ff" />
      <stop offset="100%" stop-color="#0050d0" />
    </linearGradient>
  </defs>
  
  <rect width="512" height="512" rx="112" fill="url(#bgGrad512)" />
  <rect width="512" height="512" rx="112" fill="none" stroke="#93c5fd" stroke-width="8" />

  <g transform="translate(42, 42) scale(4.28)">
    <!-- Left Loop -->
    <path d="M 46 38 C 42 28, 24 28, 20 40 C 16 52, 22 66, 36 66 C 46 66, 52 56, 56 50" fill="none" stroke="url(#blueGrad512)" stroke-width="7.5" stroke-linecap="round" stroke-linejoin="round" />
    <!-- Horizontal E Bar -->
    <path d="M 19 46 L 36 46" fill="none" stroke="url(#blueGrad512)" stroke-width="7" stroke-linecap="round" />
    <!-- Right Loop -->
    <path d="M 52 48 C 56 40, 64 33, 74 36 C 84 39, 86 52, 80 62 C 74 72, 60 70, 52 60 C 48 55, 45 48, 41 43" fill="none" stroke="url(#blueGrad512)" stroke-width="7.5" stroke-linecap="round" stroke-linejoin="round" />
    <!-- Arrow Shaft -->
    <path d="M 37 66 L 79 24" fill="none" stroke="url(#arrowGrad512)" stroke-width="7.5" stroke-linecap="round" />
    <!-- Arrow Head -->
    <path d="M 64 22 L 82 21 L 83 39" fill="none" stroke="url(#arrowGrad512)" stroke-width="7.5" stroke-linecap="round" stroke-linejoin="round" />
  </g>
</svg>
